<?xml version="1.0" encoding="UTF-8"?>
<svg id="Layer_1" xmlns="http://www.w3.org/2000/svg" version="1.1" xmlns:xlink="http://www.w3.org/1999/xlink" viewBox="0 0 640 480">
  <!-- Generator: Adobe Illustrator 29.8.2, SVG Export Plug-In . SVG Version: 2.1.1 Build 3)  -->
  <defs>
    <style>
      .st0 {
        clip-path: url(#clippath-4);
      }

      .st1 {
        fill: #1b3324;
      }

      .st2 {
        fill: url(#linear-gradient1);
      }

      .st3 {
        fill: none;
      }

      .st4 {
        clip-path: url(#clippath-1);
      }

      .st5 {
        clip-path: url(#clippath-3);
      }

      .st6 {
        clip-path: url(#clippath-2);
      }

      .st7 {
        fill: url(#linear-gradient);
      }

      .st8 {
        clip-path: url(#clippath);
      }
    </style>
    <clipPath id="clippath">
      <path class="st3" d="M387.63,132.25c-8.86-20.59-21.55-39.21-34.54-57.38-6.54-9.14-13.19-18.21-19.57-27.47-4.62-6.71-9.13-13.67-12.88-20.95-.75-1.46-1.61-2.98-2.72-4.25-1.22-1.39-2.63-2.64-3.96-3.91.04,1.13-.24,2.25-.38,3.37-.38,2.99.32,5.97.38,8.96.16,7.4-2.84,15.23-5.57,21.97-2.75,6.8-6.08,13.35-8.94,20.1-10.16,23.95-18.78,48.16-24.33,73.51-7.14,32.63-15.69,65.4-14.31,99.08.99,24.13,7.25,47.98,17.94,69.61,5.41,10.95,11.96,21.34,19.54,30.93,7.37,9.31,15.81,15.79,25.38,22.76,5.98,4.35,9.08,11.65,9.3,18.89.13,4.24-.48,8.46-1.01,12.67-.04.29-.07.59-.1.88,1.57.97,3.1,2.02,4.59,3.08.05-.35.11-.69.19-1.04.23-1,.51-1.99.65-3,.35-2.45.93-4.85,1.55-7.25,3.31-12.96,18.62-20.77,27.59-29.88,10.03-10.17,19.01-21.39,26.72-33.43,4.84-7.55,9.21-15.49,11.8-24.08,1.56-5.18,2.46-10.53,3.2-15.88,7.28-52.32.42-108.64-20.53-157.31Z"/>
    </clipPath>
    <clipPath id="clippath-1">
      <path class="st3" d="M387.63,132.25c-8.86-20.59-21.55-39.21-34.54-57.38-6.54-9.14-13.19-18.21-19.57-27.47-4.62-6.71-9.13-13.67-12.88-20.95-.75-1.46-1.61-2.98-2.72-4.25-1.22-1.39-2.63-2.64-3.96-3.91.04,1.13-.24,2.25-.38,3.37-.38,2.99.32,5.97.38,8.96.16,7.4-2.84,15.23-5.57,21.97-2.75,6.8-6.08,13.35-8.94,20.1-10.16,23.95-18.78,48.16-24.33,73.51-7.14,32.63-15.69,65.4-14.31,99.08.99,24.13,7.25,47.98,17.94,69.61,5.41,10.95,11.96,21.34,19.54,30.93,7.37,9.31,15.81,15.79,25.38,22.76,5.98,4.35,9.08,11.65,9.3,18.89.13,4.24-.48,8.46-1.01,12.67-.04.29-.07.59-.1.88,1.57.97,3.1,2.02,4.59,3.08.05-.35.11-.69.19-1.04.23-1,.51-1.99.65-3,.35-2.45.93-4.85,1.55-7.25,3.31-12.96,18.62-20.77,27.59-29.88,10.03-10.17,19.01-21.39,26.72-33.43,4.84-7.55,9.21-15.49,11.8-24.08,1.56-5.18,2.46-10.53,3.2-15.88,7.28-52.32.42-108.64-20.53-157.31Z"/>
    </clipPath>
    <linearGradient id="linear-gradient" x1="315.43" y1="247.33" x2="315.7" y2="247.33" gradientTransform="translate(-180471.55 141921.58) scale(572.97 -572.97)" gradientUnits="userSpaceOnUse">
      <stop offset="0" stop-color="#193c1f"/>
      <stop offset="0" stop-color="#193c1f"/>
      <stop offset=".01" stop-color="#193d20"/>
      <stop offset=".02" stop-color="#193d20"/>
      <stop offset=".02" stop-color="#1a3e20"/>
      <stop offset=".02" stop-color="#1a3e20"/>
      <stop offset=".03" stop-color="#1a3e21"/>
      <stop offset=".03" stop-color="#1a3f21"/>
      <stop offset=".04" stop-color="#1b3f21"/>
      <stop offset=".04" stop-color="#1b4021"/>
      <stop offset=".04" stop-color="#1b4021"/>
      <stop offset=".05" stop-color="#1b4021"/>
      <stop offset=".05" stop-color="#1b4121"/>
      <stop offset=".05" stop-color="#1b4221"/>
      <stop offset=".06" stop-color="#1b4221"/>
      <stop offset=".06" stop-color="#1b4221"/>
      <stop offset=".07" stop-color="#1b4321"/>
      <stop offset=".07" stop-color="#1b4321"/>
      <stop offset=".07" stop-color="#1b4421"/>
      <stop offset=".08" stop-color="#1a4421"/>
      <stop offset=".08" stop-color="#1b4521"/>
      <stop offset=".09" stop-color="#1b4621"/>
      <stop offset=".09" stop-color="#1b4622"/>
      <stop offset=".09" stop-color="#1b4622"/>
      <stop offset=".1" stop-color="#1a4722"/>
      <stop offset=".1" stop-color="#1a4722"/>
      <stop offset=".11" stop-color="#1a4723"/>
      <stop offset=".11" stop-color="#1a4823"/>
      <stop offset=".11" stop-color="#1b4823"/>
      <stop offset=".12" stop-color="#1b4923"/>
      <stop offset=".12" stop-color="#1b4923"/>
      <stop offset=".12" stop-color="#1b4924"/>
      <stop offset=".13" stop-color="#1b4a24"/>
      <stop offset=".13" stop-color="#1b4b24"/>
      <stop offset=".14" stop-color="#1b4b25"/>
      <stop offset=".14" stop-color="#1b4c25"/>
      <stop offset=".14" stop-color="#1b4c25"/>
      <stop offset=".15" stop-color="#1c4c25"/>
      <stop offset=".15" stop-color="#1c4d25"/>
      <stop offset=".16" stop-color="#1c4d25"/>
      <stop offset=".16" stop-color="#1c4e26"/>
      <stop offset=".16" stop-color="#1c4e26"/>
      <stop offset=".17" stop-color="#1c4f26"/>
      <stop offset=".17" stop-color="#1c4f26"/>
      <stop offset=".18" stop-color="#1c4f27"/>
      <stop offset=".18" stop-color="#1c5027"/>
      <stop offset=".18" stop-color="#1c5127"/>
      <stop offset=".19" stop-color="#1d5127"/>
      <stop offset=".19" stop-color="#1c5228"/>
      <stop offset=".2" stop-color="#1c5228"/>
      <stop offset=".2" stop-color="#1c5228"/>
      <stop offset=".2" stop-color="#1c5328"/>
      <stop offset=".21" stop-color="#1c5329"/>
      <stop offset=".21" stop-color="#1c5429"/>
      <stop offset=".21" stop-color="#1d5429"/>
      <stop offset=".22" stop-color="#1d5529"/>
      <stop offset=".22" stop-color="#1d5529"/>
      <stop offset=".23" stop-color="#1d562a"/>
      <stop offset=".23" stop-color="#1d562a"/>
      <stop offset=".23" stop-color="#1c562a"/>
      <stop offset=".24" stop-color="#1c572a"/>
      <stop offset=".24" stop-color="#1d572b"/>
      <stop offset=".25" stop-color="#1d582b"/>
      <stop offset=".25" stop-color="#1d582b"/>
      <stop offset=".25" stop-color="#1d592b"/>
      <stop offset=".26" stop-color="#1d592b"/>
      <stop offset=".26" stop-color="#1d592c"/>
      <stop offset=".27" stop-color="#1d5a2c"/>
      <stop offset=".27" stop-color="#1d5a2c"/>
      <stop offset=".27" stop-color="#1d5b2c"/>
      <stop offset=".28" stop-color="#1d5b2c"/>
      <stop offset=".28" stop-color="#1d5c2d"/>
      <stop offset=".29" stop-color="#1e5c2d"/>
      <stop offset=".29" stop-color="#1e5d2d"/>
      <stop offset=".29" stop-color="#1e5d2e"/>
      <stop offset=".3" stop-color="#1e5e2e"/>
      <stop offset=".3" stop-color="#1e5e2e"/>
      <stop offset=".3" stop-color="#1e5f2e"/>
      <stop offset=".31" stop-color="#1e5f2e"/>
      <stop offset=".32" stop-color="#1e602f"/>
      <stop offset=".32" stop-color="#1e612f"/>
      <stop offset=".32" stop-color="#1e612f"/>
      <stop offset=".33" stop-color="#1e612f"/>
      <stop offset=".33" stop-color="#1e622f"/>
      <stop offset=".34" stop-color="#1e6230"/>
      <stop offset=".34" stop-color="#1f6330"/>
      <stop offset=".35" stop-color="#1f6330"/>
      <stop offset=".35" stop-color="#1f6330"/>
      <stop offset=".36" stop-color="#1f6430"/>
      <stop offset=".37" stop-color="#1f6430"/>
      <stop offset=".37" stop-color="#1f6530"/>
      <stop offset=".38" stop-color="#206530"/>
      <stop offset=".38" stop-color="#206531"/>
      <stop offset=".39" stop-color="#206631"/>
      <stop offset=".4" stop-color="#206631"/>
      <stop offset=".4" stop-color="#206731"/>
      <stop offset=".41" stop-color="#206731"/>
      <stop offset=".41" stop-color="#206731"/>
      <stop offset=".42" stop-color="#216731"/>
      <stop offset=".42" stop-color="#216831"/>
      <stop offset=".43" stop-color="#216831"/>
      <stop offset=".44" stop-color="#216932"/>
      <stop offset=".45" stop-color="#216932"/>
      <stop offset=".45" stop-color="#216932"/>
      <stop offset=".46" stop-color="#226a32"/>
      <stop offset=".46" stop-color="#226a32"/>
      <stop offset=".47" stop-color="#226a32"/>
      <stop offset=".48" stop-color="#226b33"/>
      <stop offset=".48" stop-color="#226b33"/>
      <stop offset=".49" stop-color="#226c33"/>
      <stop offset=".49" stop-color="#236c33"/>
      <stop offset=".5" stop-color="#236c33"/>
      <stop offset=".51" stop-color="#236d33"/>
      <stop offset=".51" stop-color="#236d34"/>
      <stop offset=".52" stop-color="#236e34"/>
      <stop offset=".52" stop-color="#236e34"/>
      <stop offset=".53" stop-color="#236f34"/>
      <stop offset=".53" stop-color="#236f34"/>
      <stop offset=".54" stop-color="#236f34"/>
      <stop offset=".55" stop-color="#236f34"/>
      <stop offset=".55" stop-color="#237035"/>
      <stop offset=".56" stop-color="#237035"/>
      <stop offset=".56" stop-color="#237135"/>
      <stop offset=".57" stop-color="#237135"/>
      <stop offset=".57" stop-color="#247135"/>
      <stop offset=".58" stop-color="#247235"/>
      <stop offset=".59" stop-color="#247235"/>
      <stop offset=".59" stop-color="#247336"/>
      <stop offset=".6" stop-color="#247336"/>
      <stop offset=".61" stop-color="#247436"/>
      <stop offset=".61" stop-color="#247436"/>
      <stop offset=".62" stop-color="#247536"/>
      <stop offset=".62" stop-color="#247536"/>
      <stop offset=".63" stop-color="#247537"/>
      <stop offset=".64" stop-color="#247637"/>
      <stop offset=".65" stop-color="#247637"/>
      <stop offset=".66" stop-color="#257737"/>
      <stop offset=".66" stop-color="#257837"/>
      <stop offset=".67" stop-color="#257837"/>
      <stop offset=".68" stop-color="#257937"/>
      <stop offset=".68" stop-color="#267938"/>
      <stop offset=".69" stop-color="#267a38"/>
      <stop offset=".7" stop-color="#267a38"/>
      <stop offset=".7" stop-color="#267b38"/>
      <stop offset=".71" stop-color="#277c38"/>
      <stop offset=".71" stop-color="#277c39"/>
      <stop offset=".71" stop-color="#277c39"/>
      <stop offset=".72" stop-color="#277d39"/>
      <stop offset=".72" stop-color="#277d3a"/>
      <stop offset=".73" stop-color="#277d3a"/>
      <stop offset=".73" stop-color="#287e3b"/>
      <stop offset=".73" stop-color="#287e3b"/>
      <stop offset=".74" stop-color="#287f3b"/>
      <stop offset=".74" stop-color="#287f3c"/>
      <stop offset=".75" stop-color="#297f3c"/>
      <stop offset=".75" stop-color="#29803d"/>
      <stop offset=".76" stop-color="#2a813d"/>
      <stop offset=".76" stop-color="#2a813e"/>
      <stop offset=".77" stop-color="#2a813e"/>
      <stop offset=".77" stop-color="#2a813e"/>
      <stop offset=".78" stop-color="#2b823f"/>
      <stop offset=".78" stop-color="#2b8340"/>
      <stop offset=".79" stop-color="#2b8340"/>
      <stop offset=".79" stop-color="#2b8341"/>
      <stop offset=".8" stop-color="#2c8441"/>
      <stop offset=".8" stop-color="#2c8542"/>
      <stop offset=".8" stop-color="#2c8542"/>
      <stop offset=".81" stop-color="#2d8543"/>
      <stop offset=".81" stop-color="#2d8643"/>
      <stop offset=".82" stop-color="#2d8644"/>
      <stop offset=".82" stop-color="#2e8744"/>
      <stop offset=".83" stop-color="#2e8745"/>
      <stop offset=".83" stop-color="#2e8845"/>
      <stop offset=".84" stop-color="#2f8845"/>
      <stop offset=".84" stop-color="#2f8845"/>
      <stop offset=".84" stop-color="#2f8846"/>
      <stop offset=".85" stop-color="#308946"/>
      <stop offset=".85" stop-color="#308a46"/>
      <stop offset=".86" stop-color="#308a47"/>
      <stop offset=".86" stop-color="#308a47"/>
      <stop offset=".87" stop-color="#318a47"/>
      <stop offset=".87" stop-color="#328b48"/>
      <stop offset=".88" stop-color="#328c48"/>
      <stop offset=".88" stop-color="#328c48"/>
      <stop offset=".88" stop-color="#328c49"/>
      <stop offset=".89" stop-color="#338d49"/>
      <stop offset=".89" stop-color="#338e4a"/>
      <stop offset=".9" stop-color="#348e4a"/>
      <stop offset=".9" stop-color="#348e4a"/>
      <stop offset=".91" stop-color="#348f4b"/>
      <stop offset=".91" stop-color="#358f4b"/>
      <stop offset=".92" stop-color="#35904c"/>
      <stop offset=".92" stop-color="#36914c"/>
      <stop offset=".93" stop-color="#36914c"/>
      <stop offset=".93" stop-color="#36914d"/>
      <stop offset=".94" stop-color="#37914d"/>
      <stop offset=".94" stop-color="#37924d"/>
      <stop offset=".95" stop-color="#38934e"/>
      <stop offset=".95" stop-color="#38934e"/>
      <stop offset=".96" stop-color="#39944f"/>
      <stop offset=".96" stop-color="#39954f"/>
      <stop offset=".97" stop-color="#3a954f"/>
      <stop offset="1" stop-color="#3a954f"/>
    </linearGradient>
    <clipPath id="clippath-2">
      <rect class="st3" x="260.54" y="18.28" width="78.17" height="383.76"/>
    </clipPath>
    <clipPath id="clippath-3">
      <path class="st3" d="M338.02,285.07l-.92-29.8c-.66-19.86-1.38-39.72-2.19-59.58-.41-9.93-.83-19.85-1.35-29.77-.25-4.96-.51-9.93-.89-14.85-.4-4.94-.81-9.93-1.12-14.88-.42-6.29-.83-12.59-1.23-18.88-2.88-18.42-2.58-37.12-4.47-55.67-.88-8.62-1.69-17.42-2.88-26.06-.48-2.53-.98-5.05-1.5-7.58-.28-.52-.56-1.03-.83-1.56-.75-1.46-1.61-2.99-2.72-4.25-1.22-1.39-2.62-2.63-3.95-3.92.03,1.13-.24,2.25-.38,3.37-.38,2.99.31,5.96.38,8.96.16,7.39-2.83,15.23-5.57,21.97-2.75,6.8-6.07,13.35-8.94,20.1-10.16,23.96-18.78,48.16-24.32,73.52-7.14,32.62-15.69,65.39-14.31,99.08.99,24.12,7.25,47.98,17.93,69.61,5.41,10.96,11.96,21.35,19.54,30.93,7.37,9.31,15.81,15.8,25.38,22.76,5.99,4.35,9.09,11.65,9.3,18.89.14,4.23-.48,8.46-1,12.67-.05.3-.07.59-.11.89.47.29.94.6,1.41.91.95-9.2,1.68-18.47,2.32-27.73,1.32-19.78,2.32-39.63,2.86-59.45.16-4.94.06-9.82-.04-14.81l-.39-14.88Z"/>
    </clipPath>
    <clipPath id="clippath-4">
      <path class="st3" d="M338.02,285.07l-.92-29.8c-.66-19.86-1.38-39.72-2.19-59.58-.41-9.93-.83-19.85-1.35-29.77-.25-4.96-.51-9.93-.89-14.85-.4-4.94-.81-9.93-1.12-14.88-.42-6.29-.83-12.59-1.23-18.88-2.88-18.42-2.58-37.12-4.47-55.67-.88-8.62-1.69-17.42-2.88-26.06-.48-2.53-.98-5.05-1.5-7.58-.28-.52-.56-1.03-.83-1.56-.75-1.46-1.61-2.99-2.72-4.25-1.22-1.39-2.62-2.63-3.95-3.92.03,1.13-.24,2.25-.38,3.37-.38,2.99.31,5.96.38,8.96.16,7.39-2.83,15.23-5.57,21.97-2.75,6.8-6.07,13.35-8.94,20.1-10.16,23.96-18.78,48.16-24.32,73.52-7.14,32.62-15.69,65.39-14.31,99.08.99,24.12,7.25,47.98,17.93,69.61,5.41,10.96,11.96,21.35,19.54,30.93,7.37,9.31,15.81,15.8,25.38,22.76,5.99,4.35,9.09,11.65,9.3,18.89.14,4.23-.48,8.46-1,12.67-.05.3-.07.59-.11.89.47.29.94.6,1.41.91.95-9.2,1.68-18.47,2.32-27.73,1.32-19.78,2.32-39.63,2.86-59.45.16-4.94.06-9.82-.04-14.81l-.39-14.88Z"/>
    </clipPath>
    <linearGradient id="linear-gradient1" x1="312.1" y1="248.55" x2="312.37" y2="248.55" gradientTransform="translate(-92377.78 73983.05) scale(296.82 -296.82)" gradientUnits="userSpaceOnUse">
      <stop offset="0" stop-color="#3a954f"/>
      <stop offset=".02" stop-color="#3a954f"/>
      <stop offset=".02" stop-color="#3a954f"/>
      <stop offset=".03" stop-color="#39944f"/>
      <stop offset=".03" stop-color="#39944f"/>
      <stop offset=".04" stop-color="#38934e"/>
      <stop offset=".04" stop-color="#38934e"/>
      <stop offset=".05" stop-color="#37924d"/>
      <stop offset=".05" stop-color="#37924d"/>
      <stop offset=".05" stop-color="#37924d"/>
      <stop offset=".06" stop-color="#37914c"/>
      <stop offset=".07" stop-color="#36904c"/>
      <stop offset=".07" stop-color="#35904c"/>
      <stop offset=".07" stop-color="#35904b"/>
      <stop offset=".08" stop-color="#348f4b"/>
      <stop offset=".09" stop-color="#348f4b"/>
      <stop offset=".09" stop-color="#348e4a"/>
      <stop offset=".09" stop-color="#338e4a"/>
      <stop offset=".1" stop-color="#338e4a"/>
      <stop offset=".11" stop-color="#338d49"/>
      <stop offset=".11" stop-color="#328c48"/>
      <stop offset=".11" stop-color="#328c48"/>
      <stop offset=".12" stop-color="#318c48"/>
      <stop offset=".12" stop-color="#318b48"/>
      <stop offset=".13" stop-color="#308a47"/>
      <stop offset=".13" stop-color="#308a47"/>
      <stop offset=".14" stop-color="#308a47"/>
      <stop offset=".14" stop-color="#308946"/>
      <stop offset=".15" stop-color="#2f8946"/>
      <stop offset=".15" stop-color="#2f8845"/>
      <stop offset=".16" stop-color="#2f8845"/>
      <stop offset=".16" stop-color="#2e8745"/>
      <stop offset=".17" stop-color="#2e8744"/>
      <stop offset=".17" stop-color="#2e8644"/>
      <stop offset=".18" stop-color="#2d8643"/>
      <stop offset=".18" stop-color="#2d8543"/>
      <stop offset=".18" stop-color="#2c8543"/>
      <stop offset=".19" stop-color="#2c8542"/>
      <stop offset=".19" stop-color="#2c8442"/>
      <stop offset=".2" stop-color="#2c8441"/>
      <stop offset=".2" stop-color="#2b8441"/>
      <stop offset=".2" stop-color="#2b8341"/>
      <stop offset=".21" stop-color="#2b8340"/>
      <stop offset=".21" stop-color="#2b8340"/>
      <stop offset=".21" stop-color="#2b823f"/>
      <stop offset=".22" stop-color="#2b823f"/>
      <stop offset=".23" stop-color="#2a813e"/>
      <stop offset=".23" stop-color="#2a813e"/>
      <stop offset=".23" stop-color="#2a803d"/>
      <stop offset=".24" stop-color="#29803d"/>
      <stop offset=".24" stop-color="#29803c"/>
      <stop offset=".25" stop-color="#297f3c"/>
      <stop offset=".25" stop-color="#287e3b"/>
      <stop offset=".26" stop-color="#287e3b"/>
      <stop offset=".26" stop-color="#287e3b"/>
      <stop offset=".27" stop-color="#277d3a"/>
      <stop offset=".27" stop-color="#277d3a"/>
      <stop offset=".27" stop-color="#277d39"/>
      <stop offset=".28" stop-color="#277c39"/>
      <stop offset=".28" stop-color="#277c39"/>
      <stop offset=".29" stop-color="#277c38"/>
      <stop offset=".29" stop-color="#267b38"/>
      <stop offset=".3" stop-color="#267b38"/>
      <stop offset=".3" stop-color="#267a38"/>
      <stop offset=".31" stop-color="#267a38"/>
      <stop offset=".31" stop-color="#257938"/>
      <stop offset=".32" stop-color="#257937"/>
      <stop offset=".33" stop-color="#257837"/>
      <stop offset=".33" stop-color="#257837"/>
      <stop offset=".34" stop-color="#257737"/>
      <stop offset=".34" stop-color="#257737"/>
      <stop offset=".35" stop-color="#257637"/>
      <stop offset=".36" stop-color="#247637"/>
      <stop offset=".37" stop-color="#247637"/>
      <stop offset=".37" stop-color="#247536"/>
      <stop offset=".38" stop-color="#247536"/>
      <stop offset=".38" stop-color="#247436"/>
      <stop offset=".39" stop-color="#247436"/>
      <stop offset=".4" stop-color="#247336"/>
      <stop offset=".4" stop-color="#247336"/>
      <stop offset=".41" stop-color="#247235"/>
      <stop offset=".41" stop-color="#247235"/>
      <stop offset=".42" stop-color="#247235"/>
      <stop offset=".43" stop-color="#237135"/>
      <stop offset=".43" stop-color="#237135"/>
      <stop offset=".44" stop-color="#237135"/>
      <stop offset=".45" stop-color="#237035"/>
      <stop offset=".45" stop-color="#237035"/>
      <stop offset=".46" stop-color="#236f34"/>
      <stop offset=".47" stop-color="#236f34"/>
      <stop offset=".48" stop-color="#236e34"/>
      <stop offset=".48" stop-color="#236e34"/>
      <stop offset=".48" stop-color="#236d34"/>
      <stop offset=".49" stop-color="#236d33"/>
      <stop offset=".5" stop-color="#236d33"/>
      <stop offset=".5" stop-color="#236c33"/>
      <stop offset=".51" stop-color="#236c33"/>
      <stop offset=".52" stop-color="#226c33"/>
      <stop offset=".52" stop-color="#226b33"/>
      <stop offset=".52" stop-color="#226b33"/>
      <stop offset=".53" stop-color="#226b33"/>
      <stop offset=".54" stop-color="#226a32"/>
      <stop offset=".55" stop-color="#226a32"/>
      <stop offset=".55" stop-color="#216932"/>
      <stop offset=".56" stop-color="#216932"/>
      <stop offset=".57" stop-color="#216832"/>
      <stop offset=".57" stop-color="#216831"/>
      <stop offset=".58" stop-color="#216731"/>
      <stop offset=".59" stop-color="#216731"/>
      <stop offset=".59" stop-color="#206731"/>
      <stop offset=".6" stop-color="#206731"/>
      <stop offset=".61" stop-color="#206631"/>
      <stop offset=".62" stop-color="#206631"/>
      <stop offset=".62" stop-color="#206530"/>
      <stop offset=".63" stop-color="#1f6430"/>
      <stop offset=".63" stop-color="#1f6430"/>
      <stop offset=".64" stop-color="#1f6430"/>
      <stop offset=".65" stop-color="#1f6430"/>
      <stop offset=".65" stop-color="#1f6330"/>
      <stop offset=".66" stop-color="#1f6330"/>
      <stop offset=".66" stop-color="#1f6330"/>
      <stop offset=".67" stop-color="#1e622f"/>
      <stop offset=".67" stop-color="#1e612f"/>
      <stop offset=".68" stop-color="#1e612f"/>
      <stop offset=".68" stop-color="#1e612f"/>
      <stop offset=".68" stop-color="#1e602f"/>
      <stop offset=".69" stop-color="#1e602e"/>
      <stop offset=".7" stop-color="#1e5f2e"/>
      <stop offset=".7" stop-color="#1e5e2e"/>
      <stop offset=".7" stop-color="#1e5e2e"/>
      <stop offset=".71" stop-color="#1e5e2e"/>
      <stop offset=".71" stop-color="#1e5d2d"/>
      <stop offset=".71" stop-color="#1e5c2d"/>
      <stop offset=".72" stop-color="#1d5c2d"/>
      <stop offset=".72" stop-color="#1d5b2c"/>
      <stop offset=".73" stop-color="#1d5b2c"/>
      <stop offset=".73" stop-color="#1d5b2c"/>
      <stop offset=".73" stop-color="#1d5a2c"/>
      <stop offset=".74" stop-color="#1d5a2c"/>
      <stop offset=".74" stop-color="#1d592b"/>
      <stop offset=".75" stop-color="#1d592b"/>
      <stop offset=".75" stop-color="#1d582b"/>
      <stop offset=".75" stop-color="#1d582b"/>
      <stop offset=".76" stop-color="#1d582b"/>
      <stop offset=".76" stop-color="#1c572a"/>
      <stop offset=".77" stop-color="#1c572a"/>
      <stop offset=".77" stop-color="#1c562a"/>
      <stop offset=".77" stop-color="#1d562a"/>
      <stop offset=".78" stop-color="#1d552a"/>
      <stop offset=".78" stop-color="#1d5529"/>
      <stop offset=".79" stop-color="#1d5529"/>
      <stop offset=".79" stop-color="#1d5429"/>
      <stop offset=".79" stop-color="#1c5429"/>
      <stop offset=".8" stop-color="#1c5329"/>
      <stop offset=".8" stop-color="#1c5328"/>
      <stop offset=".8" stop-color="#1c5228"/>
      <stop offset=".81" stop-color="#1c5228"/>
      <stop offset=".81" stop-color="#1d5228"/>
      <stop offset=".82" stop-color="#1d5127"/>
      <stop offset=".82" stop-color="#1c5127"/>
      <stop offset=".82" stop-color="#1c5027"/>
      <stop offset=".83" stop-color="#1c4f26"/>
      <stop offset=".83" stop-color="#1c4f26"/>
      <stop offset=".84" stop-color="#1c4f26"/>
      <stop offset=".84" stop-color="#1c4e26"/>
      <stop offset=".84" stop-color="#1c4e26"/>
      <stop offset=".85" stop-color="#1c4d25"/>
      <stop offset=".85" stop-color="#1c4d25"/>
      <stop offset=".86" stop-color="#1c4c25"/>
      <stop offset=".86" stop-color="#1b4c25"/>
      <stop offset=".86" stop-color="#1b4c25"/>
      <stop offset=".87" stop-color="#1b4b25"/>
      <stop offset=".87" stop-color="#1b4b24"/>
      <stop offset=".88" stop-color="#1b4a24"/>
      <stop offset=".88" stop-color="#1b4a24"/>
      <stop offset=".88" stop-color="#1b4923"/>
      <stop offset=".89" stop-color="#1b4923"/>
      <stop offset=".89" stop-color="#1b4823"/>
      <stop offset=".89" stop-color="#1a4823"/>
      <stop offset=".9" stop-color="#1a4723"/>
      <stop offset=".9" stop-color="#1a4722"/>
      <stop offset=".91" stop-color="#1a4722"/>
      <stop offset=".91" stop-color="#1a4622"/>
      <stop offset=".91" stop-color="#1a4622"/>
      <stop offset=".92" stop-color="#1b4522"/>
      <stop offset=".92" stop-color="#1b4521"/>
      <stop offset=".93" stop-color="#1b4521"/>
      <stop offset=".93" stop-color="#1a4421"/>
      <stop offset=".93" stop-color="#1b4321"/>
      <stop offset=".94" stop-color="#1b4321"/>
      <stop offset=".94" stop-color="#1b4321"/>
      <stop offset=".95" stop-color="#1b4221"/>
      <stop offset=".95" stop-color="#1b4221"/>
      <stop offset=".95" stop-color="#1b4121"/>
      <stop offset=".96" stop-color="#1b4121"/>
      <stop offset=".96" stop-color="#1b4021"/>
      <stop offset=".96" stop-color="#1b4021"/>
      <stop offset=".97" stop-color="#1b3f21"/>
      <stop offset=".97" stop-color="#1b3f21"/>
      <stop offset=".98" stop-color="#1a3f21"/>
      <stop offset=".98" stop-color="#1a3e20"/>
      <stop offset=".98" stop-color="#1a3e20"/>
      <stop offset=".99" stop-color="#1a3e20"/>
      <stop offset=".99" stop-color="#193d20"/>
      <stop offset="1" stop-color="#193d20"/>
      <stop offset="1" stop-color="#193c1f"/>
    </linearGradient>
  </defs>
  <g class="st8">
    <g class="st4">
      <path class="st7" d="M259.44,18.29v385.82h156V18.29h-156Z"/>
    </g>
  </g>
  <g class="st6">
    <g class="st5">
      <g class="st0">
        <path class="st2" d="M259.44,18.29v383.65h79.17V18.29h-79.17Z"/>
      </g>
    </g>
  </g>
  <path class="st1" d="M327.51,468.41c.1-8.74.35-17.41.73-26.12.39-8.7.88-17.4,1.67-26.09.42-4.35.85-8.7,1.47-13.06l.88-6.42c.27-2.13.5-4.27.76-6.4.91-8.57,1.59-17.2,2.18-25.83,1.15-17.27,2.02-34.59,2.5-51.88.14-4.32.05-8.57-.04-12.92l-.34-12.99-.81-26c-.58-17.33-1.2-34.66-1.91-51.99-.36-8.66-.73-17.32-1.17-25.98-.23-4.33-.45-8.66-.78-12.96-.35-4.31-.7-8.66-.98-12.98-1.16-17.31-2.17-34.62-3.4-51.92-.61-8.65-1.27-17.3-2.02-25.94-.76-8.63-1.6-17.27-2.8-25.86,1.34,8.57,2.3,17.19,3.19,25.82.88,8.63,1.68,17.27,2.42,25.91,1.49,17.28,2.77,34.59,4.19,51.86.34,4.33.77,8.62,1.18,12.94.41,4.34.69,8.67.98,13,.58,8.66,1.08,17.32,1.57,25.98.97,17.32,1.86,34.65,2.7,51.97l1.2,26,.53,13.01c.16,4.32.32,8.73.24,13.09-.21,17.39-.82,34.74-1.71,52.1-.46,8.68-1.02,17.36-1.81,26.05-.22,2.17-.42,4.35-.67,6.53l-.79,6.49c-.55,4.24-.9,8.53-1.25,12.81-.65,8.59-1.01,17.22-1.26,25.85-.24,8.63-.36,17.3-.33,25.9h-6.33"/>
  <path class="st1" d="M336.86,365.16c-3.07-4.08-6.32-8.08-9.73-11.9-3.42-3.83-7-7.5-11.04-10.64-4.04-3.17-8.32-6.04-12.36-9.26-4.01-3.2-7.88-6.86-10.15-11.53,2.4,4.6,6.34,8.11,10.43,11.17,4.11,3.08,8.47,5.82,12.63,8.9,4.19,3.06,7.94,6.69,11.49,10.44,3.55,3.76,6.93,7.67,10.17,11.73.31.39.25.96-.14,1.27-.39.31-.96.25-1.27-.14,0,0,0-.01-.01-.02v-.02"/>
  <path class="st1" d="M338.7,333.4c-5.07-2.81-9.99-5.8-14.87-8.89-4.87-3.1-9.66-6.33-14.3-9.75-4.65-3.42-9.2-6.97-13.45-10.88-4.24-3.9-8.32-8.04-11.55-12.82,3.36,4.7,7.53,8.71,11.85,12.48,4.33,3.78,8.96,7.2,13.67,10.48,4.71,3.29,9.56,6.38,14.48,9.33,4.92,2.95,9.93,5.8,15,8.45h.01c.44.24.61.78.38,1.23-.23.44-.78.62-1.22.39,0,0-.02,0-.02-.01"/>
  <path class="st1" d="M339.35,304.42c-6.03-2.94-11.93-6.05-17.78-9.3-5.83-3.26-11.6-6.65-17.22-10.27-5.62-3.62-11.12-7.43-16.3-11.67-2.58-2.12-5.1-4.33-7.41-6.75-2.3-2.42-4.46-5.01-6.05-7.95,1.66,2.9,3.87,5.44,6.22,7.79,2.35,2.36,4.91,4.5,7.53,6.55,5.25,4.1,10.82,7.78,16.5,11.26,5.68,3.48,11.5,6.73,17.39,9.84,5.89,3.1,11.86,6.08,17.9,8.85h.01c.45.22.65.75.45,1.21-.21.45-.74.65-1.2.45,0,0-.01,0-.02-.01"/>
  <path class="st1" d="M338.49,278.4c-7.21-2.57-14.19-5.57-21.04-8.89-6.84-3.33-13.51-7.02-19.86-11.21-6.34-4.19-12.36-8.93-17.57-14.49-2.57-2.81-4.9-5.84-6.81-9.13-1.9-3.29-3.36-6.85-4.06-10.58.78,3.72,2.3,7.24,4.26,10.47,1.96,3.23,4.34,6.2,6.94,8.93,5.28,5.42,11.35,10,17.73,14.04,6.39,4.04,13.09,7.58,19.95,10.74,6.86,3.15,13.89,6.02,21.02,8.39h.02c.48.17.73.68.57,1.15-.16.47-.67.73-1.15.57,0,0-.01,0-.02,0"/>
  <path class="st1" d="M337.43,247.4c-2.89-.41-5.6-1.14-8.28-2.09-2.67-.95-5.26-2.15-7.69-3.62-2.44-1.45-4.7-3.2-6.68-5.25l-.75-.76c-.24-.26-.46-.54-.68-.81-.45-.55-.92-1.09-1.34-1.64-.84-1.11-1.68-2.22-2.53-3.31-3.42-4.39-6.98-8.67-10.75-12.77-1.89-2.04-3.82-4.05-5.85-5.95-2.03-1.89-4.15-3.73-6.52-5.19,2.42,1.4,4.59,3.18,6.68,5.02,2.09,1.85,4.08,3.81,6.03,5.81,3.89,4.01,7.58,8.2,11.13,12.52.89,1.08,1.76,2.17,2.63,3.26.44.54.9,1.04,1.34,1.56.23.26.44.52.68.77l.74.71c1.95,1.92,4.18,3.55,6.57,4.88,2.38,1.35,4.91,2.44,7.51,3.29,2.59.84,5.31,1.49,7.95,1.78h.05c.5.06.85.51.8,1.01-.06.5-.51.85-1,.8,0,0-.02,0-.02,0"/>
  <path class="st1" d="M316.65,237.83c-1.03.11-1.97.07-2.94,0-.96-.08-1.91-.22-2.86-.39-1.89-.34-3.74-.85-5.55-1.46-3.63-1.2-7.09-2.82-10.42-4.66-3.33-1.83-6.58-3.79-9.72-5.94-1.57-1.07-3.09-2.2-4.64-3.29-1.53-1.1-3.17-2.12-5.05-2.51,1.88.35,3.55,1.35,5.11,2.42,1.57,1.07,3.11,2.17,4.7,3.2,3.17,2.08,6.45,3.97,9.8,5.73,3.35,1.76,6.81,3.3,10.41,4.41,1.79.56,3.62,1.03,5.47,1.32.93.15,1.85.26,2.78.32.92.06,1.88.07,2.74-.04h.04c.25-.04.47.14.5.39.03.25-.14.47-.39.5,0,0,0,0,0,0"/>
  <path class="st1" d="M335.87,218.97c-4.34-2.15-8.61-4.41-12.79-6.85-2.09-1.22-4.16-2.48-6.16-3.86-1-.69-1.99-1.4-2.93-2.18-.96-.76-1.84-1.67-2.67-2.48-3.46-3.29-7.39-6.1-11.43-8.7-4.06-2.58-8.28-4.91-12.63-6.98,4.41,1.94,8.71,4.14,12.87,6.6,4.14,2.48,8.17,5.18,11.8,8.43.91.84,1.74,1.64,2.69,2.35.93.73,1.93,1.39,2.93,2.04,2.01,1.3,4.09,2.47,6.2,3.62,4.21,2.29,8.54,4.4,12.89,6.39h.01c.46.21.66.75.45,1.2-.21.45-.74.65-1.2.45,0,0-.02,0-.03-.01"/>
  <path class="st1" d="M334.58,195.23c-4.14-2.8-8.4-5.49-12.71-8.05-4.31-2.56-8.72-4.99-13.21-7.21-4.5-2.2-9.19-4.15-13.51-6.78-2.17-1.3-4.23-2.81-6-4.62-1.76-1.83-3.17-3.92-4.61-5.99,1.5,2.02,2.97,4.07,4.77,5.83,1.8,1.74,3.88,3.17,6.06,4.39,4.37,2.48,9.06,4.27,13.67,6.35,4.59,2.1,9.09,4.4,13.5,6.85,4.42,2.45,8.76,5.01,13.04,7.72.42.27.55.83.28,1.25-.27.42-.83.55-1.25.28,0,0-.01,0-.02-.01h-.02"/>
  <path class="st1" d="M333.16,171.99c-3.68-2.6-7.45-5.13-11.28-7.54-3.83-2.4-7.72-4.72-11.78-6.7-4.08-1.96-8.23-3.83-12.26-5.93-2.01-1.06-4.01-2.16-5.89-3.44-1.84-1.29-3.77-2.71-4.71-4.82,1,2.07,2.96,3.41,4.83,4.63,1.91,1.21,3.93,2.24,5.97,3.22,4.08,1.96,8.28,3.69,12.44,5.52,4.17,1.87,8.16,4.07,12.1,6.36,3.93,2.3,7.79,4.7,11.6,7.21.42.27.53.83.26,1.25-.28.42-.84.53-1.25.26,0,0-.02-.01-.02-.02h-.01"/>
  <path class="st1" d="M331.87,154.78c-3.95-2.3-7.84-4.65-11.68-7.11-3.83-2.47-7.64-4.98-11.25-7.79-1.8-1.39-3.55-2.93-5.07-4.63-1.56-1.67-3.05-3.39-4.45-5.19-1.4-1.8-2.72-3.66-3.87-5.63-1.16-1.96-2.17-4.02-2.87-6.19.76,2.15,1.82,4.17,3.03,6.09,1.2,1.92,2.57,3.74,4.01,5.49,1.45,1.75,2.98,3.42,4.57,5.03,1.57,1.65,3.29,3.07,5.12,4.41,3.65,2.68,7.51,5.07,11.4,7.42,3.89,2.33,7.85,4.57,11.83,6.74h0c.39.21.53.69.32,1.07-.21.38-.69.52-1.07.32,0,0-.01,0-.02-.01"/>
  <path class="st1" d="M330.09,129.73c-3.96-1.92-7.56-4.28-10.98-6.93-3.4-2.65-6.54-5.65-9.25-9.01-1.37-1.67-2.6-3.44-3.7-5.29-1.11-1.84-2.06-3.78-2.84-5.78-1.61-3.99-2.4-8.27-2.51-12.53.26,4.26,1.2,8.48,2.93,12.36.84,1.95,1.84,3.82,3,5.59,1.15,1.78,2.42,3.48,3.81,5.07,2.77,3.2,5.95,6.02,9.37,8.5,3.41,2.47,7.09,4.67,10.88,6.35l.04.02c.46.2.66.74.46,1.19-.2.46-.73.66-1.19.46,0,0-.02,0-.03-.01"/>
  <path class="st1" d="M309.47,113.05c-1.18-.36-2.32-.79-3.44-1.26-1.13-.47-2.23-.98-3.31-1.57-1.07-.58-2.11-1.22-3.07-1.98-.95-.76-1.84-1.62-2.46-2.67.66,1.02,1.59,1.83,2.56,2.54.97.71,2.03,1.29,3.12,1.82,2.17,1.05,4.47,1.85,6.77,2.47h.01c.18.05.29.24.24.42-.05.18-.23.29-.41.24,0,0,0,0-.01,0"/>
  <path class="st1" d="M328.18,99.9c-1.73-.71-3.42-1.51-5.07-2.36-1.65-.86-3.28-1.77-4.85-2.77-3.13-2.01-6.13-4.32-8.39-7.29,2.32,2.93,5.35,5.16,8.5,7.1,1.59.97,3.22,1.84,4.88,2.67,1.66.81,3.36,1.58,5.08,2.24h0c.12.05.18.18.13.29-.04.12-.18.18-.29.13,0,0,0,0,0,0"/>
  <path class="st1" d="M326.72,82.32c-1.69-.55-3.34-1.24-4.87-2.13-.77-.45-1.51-.94-2.17-1.53-.66-.59-1.26-1.26-1.66-2.05.42.78,1.03,1.44,1.7,2.01.67.57,1.43,1.04,2.19,1.47,1.54.85,3.2,1.5,4.88,2.01h0c.06.02.1.08.08.14-.02.06-.08.09-.14.08h0"/>
  <path class="st1" d="M326.89,84.52c2.03-2.44,3.96-4.98,5.73-7.62.88-1.32,1.73-2.67,2.49-4.07.75-1.4,1.46-2.84,1.92-4.36-.44,1.53-1.13,2.98-1.86,4.39-.74,1.41-1.57,2.77-2.44,4.1-1.74,2.67-3.64,5.23-5.65,7.7-.04.05-.11.06-.16.02-.05-.04-.06-.11-.02-.16h0"/>
  <path class="st1" d="M328.15,96.78c.53-.3,1.05-.73,1.53-1.15.48-.43.93-.9,1.37-1.39.86-.98,1.65-2.03,2.35-3.14-.64,1.14-1.36,2.25-2.18,3.29-.41.52-.84,1.02-1.31,1.49-.48.47-.95.92-1.54,1.3-.1.07-.25.04-.31-.06-.07-.1-.04-.25.07-.31,0,0,0,0,.01,0h.02"/>
  <path class="st1" d="M328.84,109.78c2.2-2,4.28-4.15,6.27-6.37,1.99-2.22,3.9-4.53,5.62-6.96,1.72-2.43,3.36-4.95,4.61-7.66,1.26-2.7,2.26-5.56,2.53-8.55-.22,3-1.17,5.89-2.38,8.62-1.21,2.75-2.8,5.31-4.49,7.79-1.69,2.48-3.55,4.83-5.52,7.11-1.97,2.27-4.01,4.46-6.2,6.53-.14.13-.35.12-.48-.01-.13-.14-.12-.35.01-.48,0,0,0,0,0,0h0"/>
  <path class="st1" d="M330.08,129.82c2.57-2.45,5.07-5.02,7.49-7.64,2.43-2.62,4.76-5.33,6.99-8.11,2.24-2.78,4.34-5.68,6.2-8.72,1.84-3.05,3.56-6.24,4.35-9.74-.68,3.53-2.31,6.8-4.06,9.91-1.78,3.12-3.8,6.1-5.96,8.96-2.15,2.87-4.41,5.67-6.77,8.38-2.36,2.71-4.77,5.36-7.3,7.93-.26.27-.69.27-.96,0-.27-.27-.27-.7,0-.96h.01s.01-.02.01-.02"/>
  <path class="st1" d="M339.76,120.17c1.97.16,4.01.08,6-.15,2-.24,3.97-.67,5.89-1.3,1.92-.62,3.73-1.55,5.41-2.66,1.7-1.11,3.11-2.59,4.39-4.15-1.23,1.6-2.61,3.13-4.29,4.29-1.66,1.17-3.47,2.16-5.39,2.84-1.92.69-3.91,1.19-5.93,1.49-2.03.29-4.06.43-6.13.32-.19-.01-.33-.17-.32-.36.01-.19.17-.33.36-.32h.03"/>
  <path class="st1" d="M331.33,145.47c1.36-.63,2.73-1.36,4.05-2.14,1.32-.78,2.61-1.63,3.86-2.53,1.26-.89,2.45-1.88,3.6-2.91,1.16-1.03,2.21-2.17,3.22-3.36-.9,1.26-1.86,2.5-2.94,3.64-1.07,1.14-2.19,2.23-3.39,3.25-1.19,1.02-2.42,1.99-3.71,2.91-1.29.91-2.59,1.77-4,2.57-.38.22-.86.08-1.08-.3-.22-.38-.08-.86.3-1.07.02-.01.04-.02.06-.03h.02"/>
  <path class="st1" d="M332.7,165.62c4.23-3.15,8.31-6.62,12.2-10.24,3.89-3.63,7.6-7.46,11.02-11.54,3.4-4.09,6.53-8.43,9.02-13.14,2.5-4.68,4.32-9.82,4.65-15.17-.18,5.36-1.86,10.59-4.25,15.38-2.37,4.82-5.41,9.28-8.72,13.51-3.33,4.21-6.95,8.18-10.78,11.95-3.84,3.77-7.82,7.36-12.06,10.71-.39.31-.96.24-1.27-.15-.31-.39-.24-.96.15-1.27,0,0,.01-.01.02-.01l.02-.02"/>
  <path class="st1" d="M350.6,149.94c2.13.06,4.31-.01,6.46-.15,2.16-.14,4.31-.38,6.45-.7,2.14-.34,4.25-.79,6.34-1.37,2.08-.61,4.12-1.37,6.07-2.33-1.9,1.07-3.91,1.93-5.97,2.65-2.07.69-4.19,1.25-6.33,1.71-2.14.44-4.3.79-6.48,1.05-2.18.25-4.35.44-6.57.5-.38.01-.69-.29-.7-.66,0-.38.29-.69.66-.7.01,0,.02,0,.03,0h.02"/>
  <path class="st1" d="M360.09,138.76c2.21,0,4.45-.23,6.65-.63,1.1-.19,2.19-.44,3.28-.74,1.09-.28,2.14-.66,3.19-1.06-1.03.45-2.07.88-3.14,1.22-1.07.35-2.16.66-3.26.91-2.2.51-4.43.85-6.71.97-.19.01-.35-.13-.36-.32-.01-.19.13-.35.32-.36h.03"/>
  <path class="st1" d="M367.28,125.91c2.08-.38,4.12-1.1,5.93-2.24-.88.6-1.83,1.1-2.82,1.51-.99.41-2.01.73-3.07.96-.06.01-.12-.03-.13-.09-.01-.06.03-.12.09-.13h.01"/>
  <path class="st1" d="M334.31,185.37c2.59-.94,5.17-2.13,7.65-3.42,2.49-1.3,4.91-2.75,7.21-4.36,2.28-1.64,4.45-3.44,6.43-5.46,1.92-2.06,3.62-4.33,4.94-6.85-1.19,2.58-2.77,4.97-4.61,7.15-1.89,2.14-3.99,4.09-6.22,5.88-2.25,1.76-4.63,3.36-7.09,4.82-2.47,1.45-4.99,2.78-7.67,3.93-.46.19-.99-.02-1.19-.48-.2-.46.02-.99.48-1.19.02,0,.03-.01.04-.02h.03"/>
  <path class="st1" d="M335.35,208.47c4.82-2.97,9.57-6.12,14.18-9.43,4.58-3.34,9.13-6.79,13.03-10.86.46-.53.94-1.04,1.4-1.58l1.34-1.66c.89-1.11,1.76-2.23,2.63-3.36,1.72-2.26,3.4-4.56,5.01-6.91,3.19-4.7,6.27-9.53,8.43-14.81-2.02,5.34-4.98,10.27-8.05,15.06-1.55,2.39-3.17,4.75-4.84,7.06-.84,1.15-1.69,2.3-2.55,3.44l-1.3,1.7c-.45.56-.93,1.1-1.39,1.66-3.88,4.27-8.36,7.86-12.89,11.35-4.56,3.46-9.23,6.74-14.03,9.87-.42.27-.98.15-1.25-.26-.27-.42-.15-.98.26-1.25,0,0,.01,0,.02-.01h.01"/>
  <path class="st1" d="M360.43,190.43c4.73-1.1,9.44-2.34,14.09-3.77,2.32-.72,4.63-1.49,6.89-2.4,1.13-.45,2.24-.94,3.32-1.5,1.07-.57,2.14-1.19,2.96-2.1-.79.93-1.85,1.59-2.9,2.2-1.07.6-2.17,1.11-3.29,1.6-2.24.98-4.52,1.82-6.83,2.62-4.62,1.58-9.29,2.97-14.02,4.22-.24.06-.49-.08-.55-.32-.06-.24.08-.49.32-.55,0,0,0,0,.01,0h0"/>
  <path class="st1" d="M336.32,226.22c5.19-2,10.32-4.26,15.27-6.83,2.48-1.28,4.9-2.69,7.22-4.23,2.31-1.56,4.58-3.26,6.25-5.53-1.55,2.36-3.75,4.21-5.98,5.9-2.26,1.68-4.62,3.23-7.05,4.65-2.43,1.43-4.9,2.78-7.41,4.06-2.51,1.28-5.04,2.5-7.63,3.65-.46.2-.99,0-1.2-.46-.2-.46,0-.99.46-1.19.01,0,.03-.01.04-.02h.02"/>
  <path class="st1" d="M337.45,252.93c5.94-2.79,11.62-6.45,16.91-10.48,5.3-4.04,10.28-8.54,14.76-13.49.57-.61,1.15-1.21,1.7-1.84l1.6-1.93,1.6-1.93c.53-.64,1.08-1.28,1.55-1.97l2.95-4.06.74-1.02.67-1.06,1.34-2.13,1.34-2.13.67-1.06.6-1.11,2.36-4.44c.84-1.46,1.46-3.02,2.14-4.55l2.03-4.6-1.93,4.65c-.65,1.55-1.24,3.12-2.04,4.6l-2.27,4.5-.57,1.12-.65,1.08-1.29,2.16-1.29,2.17-.65,1.08-.72,1.04-2.87,4.15c-.46.7-1,1.35-1.52,2.01l-1.57,1.98-1.57,1.98c-.54.65-1.11,1.26-1.67,1.89-4.4,5.1-9.33,9.75-14.6,13.96-5.29,4.21-10.86,8.01-17.01,11.06-.45.22-.99.04-1.22-.41-.22-.45-.04-.99.41-1.21,0,0,.01,0,.02,0l.06-.03"/>
  <path class="st1" d="M374.13,223.34c2.9.11,5.85-.03,8.76-.42,2.9-.41,5.8-1.08,8.42-2.44-2.56,1.5-5.45,2.32-8.35,2.89-1.46.28-2.93.48-4.4.63-1.48.14-2.95.24-4.45.25-.25,0-.45-.2-.46-.45,0-.25.2-.45.45-.46h.03"/>
  <path class="st1" d="M385.74,205.48c2.53-.37,5.04-1.09,7.37-2.19-2.3,1.17-4.78,1.97-7.34,2.42-.06.01-.12-.03-.13-.09-.01-.06.03-.12.09-.13h0"/>
  <path class="st1" d="M338.69,282.83c5.81-3.21,11.4-6.99,16.72-11.04,5.3-4.09,10.34-8.53,14.92-13.43l3.36-3.75,1.69-1.89c.57-.62,1.17-1.22,1.75-1.83,2.35-2.42,4.85-4.7,7.51-6.79,2.62-2.11,5.49-3.94,7.63-6.53,2.13-2.6,3.43-5.77,4.46-8.96-.97,3.21-2.19,6.42-4.29,9.1-2.12,2.67-4.97,4.58-7.53,6.74-2.59,2.13-5.02,4.45-7.3,6.9-.56.62-1.14,1.23-1.69,1.86l-1.63,1.91-3.3,3.84c-4.51,5.04-9.5,9.63-14.75,13.88-5.29,4.22-10.8,8.13-16.69,11.56-.43.25-.99.11-1.24-.32-.25-.43-.1-.99.33-1.24,0,0,.01,0,.02,0l.03-.02"/>
  <path class="st1" d="M339.3,313.45c6.06-3.25,12-6.84,17.75-10.65,5.73-3.85,11.34-7.92,16.44-12.56,2.56-2.32,4.91-4.83,7.12-7.49,2.18-2.68,4.22-5.47,6.09-8.38,3.72-5.82,6.89-12.03,9.13-18.6-2.09,6.61-5.13,12.91-8.74,18.84-1.82,2.96-3.81,5.81-5.94,8.56-2.17,2.72-4.5,5.33-7.03,7.72-5.05,4.8-10.61,9.02-16.29,13.02-5.72,3.96-11.58,7.68-17.66,11.12-.44.24-.99.09-1.23-.34-.24-.44-.09-.99.34-1.23,0,0,0,0,.01,0h.02"/>
  <path class="st1" d="M337.97,349.8c3.11-1.53,6.13-3.54,8.92-5.74,2.8-2.21,5.41-4.66,7.78-7.33l1.73-2.04,1.64-2.12c1.1-1.44,2.22-2.9,3.42-4.26,2.39-2.74,4.95-5.32,7.58-7.81,5.27-4.97,10.85-9.56,16.21-14.39,2.65-2.43,5.29-4.91,7.28-7.93,1.02-1.48,1.93-3.04,2.69-4.68.74-1.63,1.37-3.36,1.52-5.16-.11,1.81-.71,3.55-1.42,5.21-.72,1.66-1.61,3.25-2.6,4.76-1.94,3.08-4.56,5.65-7.16,8.14-5.27,4.95-10.75,9.66-15.89,14.71-2.56,2.53-5.05,5.14-7.34,7.89-1.17,1.37-2.21,2.81-3.28,4.26l-1.63,2.2-1.73,2.12c-2.37,2.78-4.99,5.34-7.81,7.67-1.41,1.17-2.88,2.27-4.39,3.29-1.53,1.03-3.05,1.99-4.76,2.85-.45.23-.99.04-1.21-.4-.23-.45-.05-.99.4-1.21h0s.05-.03.05-.03"/>
  <path class="st1" d="M335.3,384.69c3.14-5.35,6.66-10.4,10.44-15.26,3.82-4.83,7.93-9.46,12.57-13.52,4.66-3.99,9.19-8.09,13.41-12.53,2.11-2.21,4.16-4.49,6.11-6.85,1.93-2.37,3.85-4.78,5.34-7.46-1.43,2.72-3.29,5.18-5.17,7.6-1.89,2.41-3.89,4.75-5.95,7.02-4.11,4.55-8.58,8.8-13.13,12.9-4.48,4.13-8.43,8.81-12.1,13.68-3.62,4.9-6.99,10.02-9.93,15.32v.02c-.25.44-.81.59-1.24.35-.44-.24-.59-.8-.35-1.23,0,0,0-.02.01-.02"/>
</svg>